<svg xmlns="http://www.w3.org/2000/svg" xmlns:xlink="http://www.w3.org/1999/xlink" version="1.1" id="Layer_1" x="0px" y="0px" width="100px" height="100px" viewBox="0 0 100 100" enable-background="new 0 0 100 100" xml:space="preserve">
<path d="M48.976,15.331c0,1.423-1.177,2.577-2.627,2.577H20.002c-1.449,0-2.627-1.154-2.627-2.577V2.516  c0-1.423,1.178-2.577,2.627-2.577h26.347c1.45,0,2.627,1.154,2.627,2.577V15.331z"/>
<path d="M83.198,15.331c0,1.423-1.175,2.577-2.626,2.577H54.225c-1.45,0-2.624-1.154-2.624-2.577V2.516  c0-1.423,1.174-2.577,2.624-2.577h26.348c1.451,0,2.626,1.154,2.626,2.577V15.331z"/>
<path d="M48.976,56.395c0,1.424-1.177,2.577-2.627,2.577H20.002c-1.449,0-2.627-1.153-2.627-2.577V43.581  c0-1.423,1.178-2.577,2.627-2.577h26.347c1.45,0,2.627,1.154,2.627,2.577V56.395z"/>
<path d="M83.198,56.395c0,1.424-1.175,2.577-2.626,2.577H54.225c-1.45,0-2.624-1.153-2.624-2.577V43.581  c0-1.423,1.174-2.577,2.624-2.577h26.348c1.451,0,2.626,1.154,2.626,2.577V56.395z"/>
<path d="M31.601,35.88c0,1.423-1.177,2.577-2.627,2.577H2.627C1.178,38.458,0,37.304,0,35.88V23.065  c0-1.423,1.178-2.577,2.627-2.577h26.347c1.45,0,2.627,1.154,2.627,2.577V35.88z"/>
<path d="M65.823,35.88c0,1.423-1.175,2.577-2.626,2.577H36.85c-1.45,0-2.624-1.154-2.624-2.577V23.065  c0-1.423,1.174-2.577,2.624-2.577h26.348c1.451,0,2.626,1.154,2.626,2.577V35.88z"/>
<path d="M100.012,35.88c0,1.423-1.176,2.577-2.628,2.577H71.037c-1.45,0-2.624-1.154-2.624-2.577V23.065  c0-1.423,1.174-2.577,2.624-2.577h26.347c1.452,0,2.628,1.154,2.628,2.577V35.88z"/>
<path d="M48.976,97.418c0,1.424-1.177,2.577-2.627,2.577H20.002c-1.449,0-2.627-1.153-2.627-2.577V84.604  c0-1.423,1.178-2.577,2.627-2.577h26.347c1.45,0,2.627,1.154,2.627,2.577V97.418z"/>
<path d="M83.198,97.418c0,1.424-1.175,2.577-2.626,2.577H54.225c-1.45,0-2.624-1.153-2.624-2.577V84.604  c0-1.423,1.174-2.577,2.624-2.577h26.348c1.451,0,2.626,1.154,2.626,2.577V97.418z"/>
<path d="M31.601,76.904c0,1.423-1.177,2.577-2.627,2.577H2.627C1.178,79.481,0,78.327,0,76.904V64.089  c0-1.423,1.178-2.576,2.627-2.576h26.347c1.45,0,2.627,1.153,2.627,2.576V76.904z"/>
<path d="M65.823,76.904c0,1.423-1.175,2.577-2.626,2.577H36.85c-1.45,0-2.624-1.154-2.624-2.577V64.089  c0-1.423,1.174-2.576,2.624-2.576h26.348c1.451,0,2.626,1.153,2.626,2.576V76.904z"/>
<path d="M100.012,76.904c0,1.423-1.176,2.577-2.628,2.577H71.037c-1.45,0-2.624-1.154-2.624-2.577V64.089  c0-1.423,1.174-2.576,2.624-2.576h26.347c1.452,0,2.628,1.153,2.628,2.576V76.904z"/>
</svg>